<?xml version="1.0" standalone="no"?><!DOCTYPE svg PUBLIC "-//W3C//DTD SVG 1.1//EN" "http://www.w3.org/Graphics/SVG/1.1/DTD/svg11.dtd"><svg class="icon" style="" viewBox="0 0 1024 1024" version="1.1" xmlns="http://www.w3.org/2000/svg" p-id="4179" xmlns:xlink="http://www.w3.org/1999/xlink" width="24" height="24"><defs><style type="text/css"><![CDATA[

]]></style></defs><path d="M461.578634 102.552677c-48.352241-16.390295-104.696504 2.708692-146.32767 10.138918C461.812971 9.038864 764.233722 90.12053 851.776544 183.635367c152.514579 162.860205 100.449783 498.475985-58.551534 638.138862-59.722196 52.435233-175.453011 129.280412-273.127587 136.711661-135.393643 10.417257-255.137865-43.926442-326.763159-121.537054-52.29811-56.601112-110.113887-167.095669-112.154359-258.283508C75.862805 347.293751 254.258845 143.076626 461.578634 102.552677L461.578634 102.552677zM617.672738 125.156488c47.958268 26.164916 129.4687 43.35339 140.065036 92.092441-66.847477-30.653137-104.144942-69.684082-172.752506-82.418105-227.850381-42.156122-427.527097 177.734984-448.272583 387.983475-12.421914 125.937271 54.841026 240.104473 126.074394 300.612569 62.813604 53.327556 174.256766 96.381118 289.542442 77.597309 65.278749-10.605545 157.898193-70.149687 214.787878-121.249505C960.745351 606.063329 951.108876 131.473357 617.672738 125.156488 612.19805 110.461811 617.741299 116.492154 617.672738 125.156488L617.672738 125.156488z" p-id="4180" fill="#bbb"></path></svg>