<?xml version="1.0" standalone="no"?><!DOCTYPE svg PUBLIC "-//W3C//DTD SVG 1.1//EN" "http://www.w3.org/Graphics/SVG/1.1/DTD/svg11.dtd"><svg class="icon" style="" viewBox="0 0 1000 1000" version="1.1" xmlns="http://www.w3.org/2000/svg" p-id="2018" xmlns:xlink="http://www.w3.org/1999/xlink" width="32" height="32"><defs><style type="text/css"><![CDATA[

]]></style></defs><path d="M851.6355 886.1832h-671.5722085031834c-35.3215 0-63.9593-28.6366-63.9593-63.9566v-671.5446926983504c0-35.3201 28.6378-63.9566 63.9593-63.9566h671.5722085031834c35.3215 0 63.9593 28.6366 63.9593 63.9566v671.5446926983504C915.5948 857.5466 886.957 886.1832 851.6355 886.1832zM734.71 253.0344h-437.2214899109267v466.68358852697867h37.97580940940621v-24.983061484313634h361.26987109211433v24.483400254627362h37.97580940940621V253.0344426478847zM335.4643 288.0107h361.26987109211433v371.74795488658685h-361.26987109211433V288.01072872592385zM367.4439 602.2976c79.1056-48.4671 138.9115-104.1014 179.3857-166.8869v116.92072774658781c0 30.979-13.6473 46.4685-40.9739 46.4685-15.646 0-34.6339-1.3271-56.9637-3.9973 3.3419 14.6621 5.9962 27.8091 7.9949 39.4732 19.9873 0.6715 39.319 0.9993 57.9631 0.9993 45.9707 0 68.9561-24.1556 68.9561-72.4509v-152.39667505431316h95.93888692902621v-33.976963618666545h-95.93888692902621v-71.95121707482326h-36.97644600389552v71.95121707482326h-186.88095683049897v33.976963618666545h162.8962350982424c-42.9726 62.6295-103.2782 115.4217-180.8848 158.3926C352.6094 580.1407 361.104 591.3051 367.4439 602.2976z" p-id="2019" fill="#FFA726"></path></svg>