<?xml version="1.0" standalone="no"?><!DOCTYPE svg PUBLIC "-//W3C//DTD SVG 1.1//EN" "http://www.w3.org/Graphics/SVG/1.1/DTD/svg11.dtd"><svg class="icon" width="32px" height="32.00px" viewBox="0 0 1000 1000" version="1.1" xmlns="http://www.w3.org/2000/svg"><path fill="#686868" d="M815.4935 715.6128c0-96.4286-22.6396-244.4453-147.591-244.4453-13.2456 0-69.1589 59.2988-152.7497 59.2988-83.6497 0-139.4991-59.2988-152.7487-59.2988-124.9474 0-147.586 148.0166-147.586 244.4453 0 69.0942 46.0836 110.4861 113.8755 110.4861H701.5531106685041C769.4059 826.0979 815.4935 784.707 815.4935 715.6128zM678.9745 334.6571c0-90.4277-73.3893-163.8139-163.8206-163.8139-90.4304 0-163.8196 73.3862-163.8196 163.8139 0 90.4277 73.3893 163.8139 163.8196 163.8139C605.5852 498.47 678.9745 425.0838 678.9745 334.6571z"  /></svg>