<?xml version="1.0" standalone="no"?><!DOCTYPE svg PUBLIC "-//W3C//DTD SVG 1.1//EN" "http://www.w3.org/Graphics/SVG/1.1/DTD/svg11.dtd"><svg class="icon" style="" viewBox="0 0 1024 1024" version="1.1" xmlns="http://www.w3.org/2000/svg" p-id="1800" xmlns:xlink="http://www.w3.org/1999/xlink" width="32" height="32"><defs><style type="text/css"><![CDATA[

]]></style></defs><path d="M934.21568 374.25664l-0.00512 0-83.44576 0c-3.96288 0-7.61344 1.18272-10.88512 2.94912l-37.62176-113.31584c-12.032-64.46592-57.40032-95.54944-113.152-95.54944L335.6928 168.34048c-64 0-102.84544 41.76384-113.15712 95.488l-37.71392 113.69984c-3.4304-1.98656-7.32672-3.27168-11.55584-3.27168L89.79456 374.25664c-12.82048 0-23.23456 10.3936-23.23456 23.25504l0 20.16256c0 12.82048 10.40896 23.23456 23.23456 23.23456l31.60064 5.4016c-9.96864 19.49696-15.67232 41.80992-15.67232 67.77344l-11.6992 133.74976c0 3.87584 0.28672 7.82336 0.768 11.79136-0.44544 2.42688-0.768 4.96128-0.768 7.552l0 160.90112c0 22.89664 18.5856 41.45664 41.47712 41.45664l63.29856 0c22.912 0 41.472-18.56 41.472-41.45664l0-51.712 544.22016 0 0 51.712c0 22.89664 18.57024 41.45664 41.472 41.45664l63.30368 0c22.89664 0 41.47712-18.56 41.47712-41.45664l0-160.90112c0-2.59072-0.32256-5.12512-0.77312-7.552 0.4608-3.97312 0.77312-7.91552 0.77312-11.79648l-11.70432-133.74464c0-26.02496-5.71392-48.3584-15.72864-67.9168l30.89408-5.25824c12.8512 0 23.23456-10.41408 23.23456-23.23968l0-20.15744C957.44512 384.64512 947.05664 374.25664 934.21568 374.25664zM250.4448 350.4384 250.4448 350.4384l27.62752-73.5232 0.38912-1.72544c2.74432-14.86848 8.88832-17.51552 17.9456-29.0048l432.49664 0c9.14432 11.8016 14.848 14.7968 17.37728 28.83584l28.06784 75.4176 10.27072 40.96512c-2.33472 29.97248-38.35392 53.65248-68.32128 53.65248l-407.808 0c-29.99296 0-66.00704-23.68-68.33152-53.65248L250.4448 350.4384zM269.80352 700.1088c-34.688 0-62.7968-28.1088-62.7968-62.80192s28.10368-62.80192 62.7968-62.80192 62.80192 28.09856 62.80192 62.80192C332.60032 672 304.49664 700.1088 269.80352 700.1088zM754.96448 700.1088c-34.69312 0-62.81728-28.1088-62.81728-62.80192s28.12928-62.80192 62.81728-62.80192 62.7968 28.09856 62.7968 62.80192C817.76128 672 789.65248 700.1088 754.96448 700.1088z" p-id="1801" fill="#161616"></path></svg>